<svg xmlns="http://www.w3.org/2000/svg" width="30" height="30" viewBox="0 0 30 30">
    <path fill-rule="evenodd" clip-rule="evenodd"
        d="M26.45 8.948C26.616 8.402 26.45 8 25.655 8H23.03C22.362 8 22.054 8.347 21.887 8.73C21.887 8.73 20.552 11.926 18.661 14.002C18.049 14.604 17.771 14.795 17.437 14.795C17.27 14.795 17.019 14.604 17.019 14.057V8.948C17.019 8.292 16.835 8 16.279 8H12.151C11.734 8 11.483 8.304 11.483 8.593C11.483 9.214 12.429 9.358 12.526 11.106V14.904C12.526 15.737 12.373 15.888 12.039 15.888C11.149 15.888 8.984 12.677 7.699 9.003C7.45 8.288 7.198 8 6.527 8H3.9C3.15 8 3 8.347 3 8.73C3 9.412 3.89 12.8 7.145 17.281C9.315 20.341 12.37 22 15.153 22C16.822 22 17.028 21.632 17.028 20.997V18.684C17.028 17.947 17.186 17.8 17.715 17.8C18.105 17.8 18.772 17.992 20.33 19.467C22.11 21.216 22.403 22 23.405 22H26.03C26.78 22 27.156 21.632 26.94 20.904C26.702 20.18 25.852 19.129 24.725 17.882C24.113 17.172 23.195 16.407 22.916 16.024C22.527 15.533 22.638 15.314 22.916 14.877C22.916 14.877 26.116 10.451 26.449 8.948" />
</svg>