<svg width="360" height="292" viewBox="0 0 360 292" fill="none" xmlns="http://www.w3.org/2000/svg">
    <path
        d="M200.618 0.939453L198.468 2.01465L198.526 10.0967H203.521C203.521 10.0967 204.5 27.441 204.597 33.6973C204.694 39.9451 205.987 101.491 205.989 101.576L219.516 99.3545H220.144L225.702 105.929C225.733 105.928 238.914 105.806 242.072 106.938C245.232 108.078 248.263 112.18 248.266 112.185V190.705H249.334L251.42 193.36V200.562H253.318V240.107H256.162V237.989H257.866V188.432H260.516V124.756L264.215 121.245V64.4014H263.502V61.9795L267.907 58.6182H268.905L274.548 61.2217H277.625V61.7461H287.433V63.5469L293.309 66.2021V118.979H297.609V119.652H301.587V149.152H302.034V162.798H303.109V100.255H317.705L318.839 98.6816H323.075V97.5996H325.291V31.2686L332.87 26.1514V20.2129H334.075L339.005 23.0557L361.497 25.459V202.414H366.356V227.866H367.373V228.501H369.582V203.548H370.275V202.343H369.518V187.369L380.764 179.345H388.414V178.581H390.94V179.598H395.618V201.773H394.672V202.66H395.618V229.447H399.783V202.602H400.373V201.508H399.712V173.361L422.224 165.544H424.595V183.769L431.448 181.561H444.528V166.398H445.027V181.495H446.672V166.521H446.99V181.495H470.435V242.018H471.296V236.429L472.054 237.187V234.719H474.703V237.187H476.22V240.696H476.466V219.519L476.051 219.149V218.638H476.718V217.115H476.938V216.319H477.022V216.079L476.66 215.943V214.531H476.964V212.226L477.308 211.915V210.536L477.528 210.257L477.748 210.536V211.915L478.085 212.226V214.531H478.39V215.943L478.026 216.079V216.319H478.111V217.115H479.458V215.549H479.704V213.347L480.527 210.943V200.478H480.301V199.966H480.722V198.671H481.194V198.101H481.758V197.259H481.661V194.195H481.44V193.626H482.27V192.098L482.574 191.832L482.833 192.084V193.639H483.514V194.176H483.403V197.615H483.209V198.133H483.481V198.671H484.537V197.136L485.191 196.702V190.595L484.537 190.09V189.5H486.455V188.794L486.96 188.516V187.959H486.701V186.832L485.742 186.081V184.986H490.613V186.081L489.655 186.832V187.959H489.396V188.516L489.901 188.794V189.5H491.818V190.09L491.164 190.595V196.702L491.818 197.136V198.671H492.875V198.133H493.146V197.615H492.952V194.176H492.842V193.639H493.522V192.084L493.781 191.832L494.086 192.098V193.626H494.909V194.195H494.695V197.259H494.598V198.101H495.161V198.671H495.635V199.966H496V200.478H495.835V210.943L496 211.425V291.517H-135V159.008L-134.873 159.132V163.303H-133.973V162.001H-132.936V166.095L-132.768 166.211V169.935L-132.515 170.143V172.577H-131.543V155.246H-131.692V152.876H-131.316V143.434L-130.759 142.915V140.862H-130.377V141.399H-129.878V138.097L-129.535 137.857V137.061L-129.236 136.931L-128.938 137.061V137.857L-128.602 138.097V141.399H-128.103V140.862H-127.721V142.915L-127.164 143.434V145.479H-124.676V143.168H-124.43V145.479H-121.437V135.06H-121.119V132.884L-120.076 131.549V130.559L-119.727 130.092V128.642H-119.183V131.996H-118.418V129.309L-117.919 128.492V125.254L-117.369 124.937V124.127H-117.155V125.157H-116.656L-115.464 114.995V112.23H-115.697V111.699L-115.237 111.621V109.627H-115.464V109.257L-114.952 109.005V104.173L-114.738 103.908L-114.524 104.173V109.005L-114.013 109.257V109.627H-114.239V111.621L-113.786 111.699V112.23H-114.013V114.995L-112.814 125.157H-112.315V124.127H-112.102V124.937L-111.552 125.254V128.492L-111.053 129.309V131.996H-110.281V128.642H-109.744V130.092L-109.388 130.559V131.549L-108.345 132.884V135.06H-108.033V145.479H-105.041V143.168H-104.795V145.479H-102.307V143.434L-101.75 142.915V140.862H-101.367V141.399H-100.869V138.097L-100.525 137.857V137.061L-100.228 136.931L-99.9229 137.061V137.857L-99.5859 138.097V141.399H-99.0869V140.862H-98.6982V142.915L-98.1484 143.434V152.876H-97.7656V155.246H-97.915V172.577H-96.9492V170.143L-96.6904 169.935V166.211L-96.5215 166.095V162.001H-95.4854V163.303H-94.585V159.132L-94.332 158.88L-94.0801 159.132V163.303H-93.1787V162.001H-92.1426V166.095L-91.9746 166.211V169.935L-91.7148 170.143V173.192L-90.8926 173.276V175.116H-90.7627V175.951H-90.9766V176.93L-90.5947 177.026V184.332L-91.0215 184.585V206.87H-82.8203V205.542L-82.4316 205.212V195.905H-82.0566V193.237L-81.9199 193.036V191.009H-80.1318V193.036H-77.1133V191.009H-75.4033V193.036H-72.4492V191.009H-70.7451V193.036H-67.7266V191.009H-65.9316V193.036L-65.7891 193.237V195.905H-65.4199V205.212L-65.0186 205.542V236.577H-62.1162V215.685H-61.8828V236.766H-59.9395L-52.7812 239.188V236.577H-51.7383V238.902H-42.0273C-42.032 238.863 -45.8158 206.436 -43.9189 193.84C-42.0273 181.237 -38.8018 167.597 -38.8018 167.597C-38.8483 167.506 -48.2737 149.05 -46.1025 120.883C-46.1025 120.883 -34.5389 114.057 -19.2764 113.584V115.578C-19.2764 115.578 -7.18771 117.709 -1.40918 122.067C-1.40918 122.067 0.819183 144.859 -5.81445 164.372C-5.78384 164.486 0.818222 189.052 0.443359 208.152C0.0626526 227.215 -0.562454 235 -0.567383 235.062H13.5166V232.691H15.5117V230.224H20.0596V238.371H24.8916V137.139H26.4727C26.4727 137.139 30.0682 113.577 32.9121 113.577C35.7559 113.577 37.4922 118.156 37.4922 118.156H62.6074C62.6074 118.156 64.5061 114.05 65.9248 114.05V59.2334L66.21 58.8057V23.9307L67.3955 19.2412H68.4834V11.0938H69.0986V19.2021H78.0127L85.0742 22.3242V17.8682H85.4561V23.0303C85.4561 23.0303 92.1357 33.2693 93.0361 35.5879C93.9289 37.8932 92.8215 39.7721 92.8027 39.8037V63.417C92.8027 63.417 101.521 81.7369 102.131 83.0146C102.753 84.2905 102.844 86.6675 102.844 88.5068V140.422C102.856 140.45 109.912 156.122 110.669 157.824C111.427 159.534 111.33 164.178 111.33 167.111V237.898H113.507V195.07H114.077V157.798H112.904V122.236H111.266V86.292L115.495 84.3877V78.2676L121.624 76.3701H134.075V76.1172H136.413V77.0049H137.049V83.9541H141.221V82.9375H141.849V84.0186H143.235V119.264L144.122 120.027V126.187H145.359V109.315H153.321V118.979H156.826C156.826 118.979 158.407 78.6506 159.288 65.8916C160.182 53.1266 161.756 9.72754 161.756 9.72754H162.456V6.63184L200.618 0V0.939453Z"
        fill="url(#paint0_linear_888_4239)" />
    <defs>
        <linearGradient id="paint0_linear_888_4239" x1="180.495" y1="283.777" x2="180.495" y2="-7.30851"
            gradientUnits="userSpaceOnUse">
            <stop stop-color="#E7E7E9" />
            <stop offset="1" stop-color="#D4D5D9" stop-opacity="0.6" />
        </linearGradient>
    </defs>
</svg>